<?xml version="1.0" encoding="UTF-8"?><svg id="Layer_1" xmlns="http://www.w3.org/2000/svg" viewBox="0 0 1000 798"><path d="M231.23,353.626l-38.81,92.09-38.809-92.09h19.996l18.813,44.861,18.813-44.861h19.997Z" fill="#010101"/><path d="M275.959,352.31c15.26,0,28.811,7.235,37.493,18.418l-14.866,10.919c-5.262-6.709-13.55-10.919-22.627-10.919-15.918,0-28.943,13.025-28.943,28.943s13.025,28.943,28.943,28.943c9.078,0,17.365-4.21,22.627-10.919l14.866,10.919c-8.683,11.182-22.233,18.418-37.493,18.418-26.18,0-47.36-21.18-47.36-47.36s21.18-47.36,47.36-47.36Z" fill="#010101"/><path d="M318.715,353.626h18.418v30.127c5.262-3.421,11.445-5,17.76-5,16.05,0,32.231,11.314,32.231,34.074v32.889h-18.419v-32.889c0-8.683-7.103-15.787-15.786-15.787s-15.787,7.104-15.787,15.787v32.889h-18.418v-92.09Z" fill="#010101"/><path d="M426.592,378.622c18.813,0,34.205,15.392,34.205,34.205v34.205h-34.205c-18.813,0-34.205-15.392-34.205-34.205s15.392-34.205,34.205-34.205ZM426.592,428.613h15.786v-15.787c0-8.683-7.103-15.787-15.786-15.787s-15.787,7.104-15.787,15.787,7.104,15.787,15.787,15.787Z" fill="#010101"/><rect x="468.689" y="379.937" width="18.419" height="65.779" fill="#010101"/><path d="M564.725,445.716h-18.418v-30.916c0-11.051-5.394-16.444-16.445-16.444h-16.444v47.36h-18.418v-65.779h34.862c23.418,0,34.863,11.445,34.863,34.863v30.916Z" fill="#010101"/><path d="M617.347,352.31c15.26,0,28.811,7.235,37.493,18.418l-14.866,10.919c-5.262-6.709-13.55-10.919-22.627-10.919-15.918,0-28.943,13.025-28.943,28.943s13.025,28.943,28.943,28.943c9.078,0,17.365-4.21,22.627-10.919l14.866,10.919c-8.683,11.182-22.233,18.418-37.493,18.418-26.18,0-47.36-21.18-47.36-47.36s21.18-47.36,47.36-47.36Z" fill="#010101"/><path d="M660.104,402.433c0-16.181,7.629-22.496,25.127-22.496h13.814v18.419h-13.814c-4.999,0-6.709,2.499-6.709,6.182v41.178h-18.418v-43.282Z" fill="#010101"/><path d="M724.829,420.72c2.763,4.736,7.893,7.894,13.682,7.894,3.158,0,6.183-1.053,8.683-2.763l15.392,11.445c-6.183,6.051-14.735,9.735-24.075,9.735-18.945,0-34.205-15.261-34.205-34.205s15.26-34.205,34.205-34.205,34.205,15.26,34.205,34.205c0,2.632-.395,5.394-.921,7.894h-46.965ZM724.829,404.933h27.231c-2.763-4.736-7.762-7.894-13.55-7.894s-10.919,3.158-13.682,7.894Z" fill="#010101"/><path d="M810.21,378.753c6.314,0,12.497,1.579,17.759,5v-30.127h18.419v93.405h-34.205c-18.813,0-34.205-15.392-34.205-34.205,0-22.759,16.181-34.074,32.231-34.074ZM812.184,428.613h15.786v-15.787c0-8.683-7.103-15.787-15.786-15.787s-15.787,7.104-15.787,15.787,7.104,15.787,15.787,15.787Z" fill="#010101"/><polygon points="474.186 350.969 468.582 350.969 468.582 369.446 474.186 369.446 487.052 369.446 487.052 363.083 487.052 350.969 478.616 350.969 474.186 350.969" fill="#010101"/></svg>