<?xml version="1.0" encoding="UTF-8"?><svg id="Layer_1" xmlns="http://www.w3.org/2000/svg" viewBox="340 230 430 330"><path d="M491.603,544.907c-50.82-29.479-93.797-73.467-115.623-128.682-11.448-28.961-17.085-60.251-16.721-91.479l69.745-27.069-1.872,31.45-36.368,15.422c4.149,50.437,28.2,98.393,64.812,132.808v-202.424l36.026-21.841v291.814Z" fill="#27536b"/><path d="M640.216,322.667l-124.895-65.201-7.214-4.373v291.814c47.874-27.77,88.775-68.421,111.603-119.198.027.014.055.025.081.038,1.375-3.064,2.701-6.156,3.941-9.293.863-2.193,1.698-4.414,2.504-6.635-.057,0-.127,0-.198-.014-10.781-1.174-22.58-.368-33.516-.807-1.293,2.943-2.661,5.851-4.087,8.732-.051-.008-.104-.011-.155-.019-11.059,22.298-26.048,42.634-44.146,59.646v-166.321h.002s28.042,11.56,28.042,11.56l36.742,15.153c.056,2.321.014,4.655-.099,6.975-.099,1.98-.254,3.961-.467,5.928-.141,1.358-.311,2.716-.495,4.075-.976,7.173-2.518,14.289-4.117,21.307h31.522c1.684-8.644,3.282-17.345,4.202-26.117.113-.976.212-1.952.297-2.929.396-4.555.792-9.847.919-14.388.042-1.754.298-9.097-.466-9.932Z" fill="#fe9a00"/></svg>