<?xml version="1.0" encoding="UTF-8"?><svg id="Layer_1" xmlns="http://www.w3.org/2000/svg" viewBox="0 0 1000 798"><path d="M392.277,487.622l-11.578-31.992h5.1l5.469,15.728c1.608,4.652,3.153,9.204,3.865,12.194h.092c.67-2.688,2.379-7.433,4.028-12.052l5.7-15.871h4.886l-11.955,31.992h-5.607Z" fill="#010101"/><path d="M413.863,476.76c.025,4.414,2.244,7.701,6.08,7.701,3.513,0,4.631-1.751,5.355-3.409h4.547c-.905,2.978-3.429,7.123-10.037,7.123-7.441,0-10.514-5.95-10.514-12.009,0-7.047,3.564-12.546,10.77-12.546,7.659,0,10.188,6.021,10.188,11.189,0,.728,0,1.311-.067,1.951h-16.322ZM425.68,473.687c-.046-3.639-1.822-6.583-5.666-6.583-3.929,0-5.632,2.73-6.014,6.583h11.679Z" fill="#010101"/><path d="M435.322,470.542c0-3.095-.025-4.983-.047-6.369h4.434c.067.632.135,2.567.135,4.657,1.189-3.078,3.928-5.109,7.826-5.209v4.455c-4.79.092-7.826,2.362-7.826,8.388v11.159h-4.522v-17.08Z" fill="#010101"/><path d="M451.63,453.843h4.522v5.201h-4.522v-5.201ZM451.63,464.173h4.522v23.449h-4.522v-23.449Z" fill="#010101"/><path d="M464.076,487.622v-19.84h-3.71v-3.609h3.71v-2.663c0-4.413,1.796-8.128,6.956-8.128.901,0,2.102.117,2.676.302v3.76c-.523-.121-1.315-.193-1.922-.193-2.32,0-3.186,1.307-3.186,4.56v2.362h4.58v3.609h-4.58v19.84h-4.523Z" fill="#010101"/><path d="M476.966,453.843h4.522v5.201h-4.522v-5.201ZM476.966,464.173h4.522v23.449h-4.522v-23.449Z" fill="#010101"/><path d="M490.483,464.173c3.522,10.62,5.612,17.039,6.185,19.38h.047c.711-2.601,2.323-7.944,5.954-19.38h4.551l-8.325,24.45c-2.358,6.838-4.141,8.63-9.103,8.63-.704,0-1.674-.046-2.621-.159v-3.852c.565.071,1.252.117,1.884.117,2.856,0,3.999-1.214,5.285-4.87l-8.735-24.316h4.878Z" fill="#010101"/><path d="M513.965,476.76c.025,4.414,2.244,7.701,6.08,7.701,3.513,0,4.631-1.751,5.355-3.409h4.547c-.905,2.978-3.429,7.123-10.036,7.123-7.442,0-10.515-5.95-10.515-12.009,0-7.047,3.564-12.546,10.77-12.546,7.659,0,10.188,6.021,10.188,11.189,0,.728,0,1.311-.067,1.951h-16.322ZM525.782,473.687c-.046-3.639-1.822-6.583-5.666-6.583-3.929,0-5.632,2.73-6.014,6.583h11.679Z" fill="#010101"/><path d="M555.594,453.843v27.189c0,2.19,0,4.351.046,6.591h-4.346c-.113-.637-.201-2.32-.222-3.157-1.151,2.328-3.459,3.71-7.237,3.71-6.009,0-9.727-4.861-9.727-12.043,0-7.219,3.999-12.512,10.514-12.512,3.999,0,5.841,1.583,6.449,2.847v-12.625h4.522ZM538.789,475.998c0,5.452,2.517,8.4,6.102,8.4,5.284,0,6.356-3.982,6.356-8.781,0-4.979-.988-8.22-6.068-8.22-3.995,0-6.391,3.157-6.391,8.601Z" fill="#010101"/><path d="M573.844,453.843h4.522v13.509c1.042-1.905,3.153-3.731,7.332-3.731,5.979,0,9.588,4.928,9.588,11.813,0,7.047-3.55,12.742-10.208,12.742-3.702,0-5.578-1.315-6.755-3.48,0,1.118-.088,2.303-.176,2.927h-4.351c.047-2.604.047-5.23.047-7.835v-25.945ZM590.648,475.521c0-4.837-2.144-8.124-6.101-8.124-4.732,0-6.403,3.162-6.403,8.589,0,4.702,1.482,8.433,6.232,8.433,3.982,0,6.273-3.429,6.273-8.898Z" fill="#010101"/><path d="M602.564,464.173c3.522,10.62,5.612,17.039,6.185,19.38h.047c.711-2.601,2.323-7.944,5.954-19.38h4.551l-8.325,24.45c-2.358,6.838-4.141,8.63-9.103,8.63-.704,0-1.674-.046-2.621-.159v-3.852c.565.071,1.252.117,1.884.117,2.856,0,3.999-1.214,5.285-4.87l-8.735-24.316h4.878Z" fill="#010101"/><path d="M284.476,506.099l-31.121,73.846-31.12-73.846h16.034l15.086,35.973,15.086-35.973h16.035Z" fill="#010101"/><path d="M320.344,505.045c12.237,0,23.103,5.802,30.065,14.769l-11.921,8.756c-4.22-5.38-10.865-8.756-18.145-8.756-12.765,0-23.209,10.444-23.209,23.209s10.444,23.209,23.209,23.209c7.279,0,13.925-3.376,18.145-8.756l11.921,8.756c-6.963,8.967-17.829,14.769-30.065,14.769-20.994,0-37.978-16.984-37.978-37.978s16.984-37.978,37.978-37.978Z" fill="#010101"/><path d="M354.63,506.099h14.769v24.158c4.22-2.743,9.178-4.009,14.242-4.009,12.87,0,25.846,9.073,25.846,27.323v26.374h-14.77v-26.374c0-6.963-5.696-12.659-12.659-12.659s-12.659,5.697-12.659,12.659v26.374h-14.769v-73.846Z" fill="#010101"/><path d="M441.135,526.143c15.086,0,27.428,12.343,27.428,27.428v27.428h-27.428c-15.086,0-27.428-12.343-27.428-27.428s12.343-27.428,27.428-27.428ZM441.135,566.231h12.659v-12.659c0-6.963-5.696-12.659-12.659-12.659s-12.659,5.697-12.659,12.659,5.697,12.659,12.659,12.659Z" fill="#010101"/><rect x="474.892" y="527.198" width="14.77" height="52.747" fill="#010101"/><path d="M551.902,579.945h-14.769v-24.791c0-8.862-4.325-13.186-13.187-13.186h-13.186v37.978h-14.769v-52.747h27.955c18.778,0,27.956,9.178,27.956,27.956v24.791Z" fill="#010101"/><path d="M594.1,505.045c12.237,0,23.103,5.802,30.065,14.769l-11.921,8.756c-4.22-5.38-10.865-8.756-18.145-8.756-12.765,0-23.209,10.444-23.209,23.209s10.444,23.209,23.209,23.209c7.279,0,13.925-3.376,18.145-8.756l11.921,8.756c-6.963,8.967-17.829,14.769-30.065,14.769-20.994,0-37.978-16.984-37.978-37.978s16.984-37.978,37.978-37.978Z" fill="#010101"/><path d="M628.385,545.238c0-12.975,6.118-18.04,20.149-18.04h11.077v14.77h-11.077c-4.009,0-5.38,2.004-5.38,4.957v33.02h-14.769v-34.708Z" fill="#010101"/><path d="M680.288,559.901c2.215,3.798,6.329,6.33,10.971,6.33,2.532,0,4.958-.845,6.963-2.215l12.343,9.178c-4.958,4.852-11.816,7.806-19.305,7.806-15.192,0-27.428-12.238-27.428-27.428s12.237-27.428,27.428-27.428,27.428,12.237,27.428,27.428c0,2.11-.317,4.325-.739,6.33h-37.661ZM680.288,547.242h21.836c-2.215-3.798-6.224-6.33-10.865-6.33s-8.756,2.532-10.971,6.33Z" fill="#010101"/><path d="M748.754,526.248c5.063,0,10.022,1.266,14.241,4.009v-24.158h14.77v74.901h-27.428c-15.086,0-27.428-12.343-27.428-27.428,0-18.251,12.975-27.323,25.846-27.323ZM750.336,566.231h12.659v-12.659c0-6.963-5.696-12.659-12.659-12.659s-12.659,5.697-12.659,12.659,5.697,12.659,12.659,12.659Z" fill="#010101"/><polygon points="479.3 503.969 474.806 503.969 474.806 518.785 479.3 518.785 489.617 518.785 489.617 513.683 489.617 503.969 482.852 503.969 479.3 503.969" fill="#010101"/><path d="M493.642,437.95v-220.95l-27.278,16.537v153.267c-27.722-26.058-45.931-62.368-49.073-100.557l27.536-11.677,1.418-23.812-52.808,20.496c-.276,23.644,3.993,47.336,12.66,69.264,16.525,41.807,49.065,75.112,87.545,97.433Z" fill="#010101"/><path d="M605.823,288.093c.3-3.449.6-7.456.696-10.894.032-1.328.225-6.888-.353-7.52l-94.565-49.368-5.462-3.311v220.949c36.248-21.026,67.217-51.805,84.501-90.252.02.01.041.019.061.029,1.041-2.32,2.045-4.661,2.984-7.036.654-1.66,1.285-3.342,1.896-5.024-.043,0-.096,0-.15-.011-8.163-.889-17.097-.278-25.377-.611-.979,2.228-2.015,4.43-3.095,6.611-.039-.006-.079-.008-.118-.014-8.373,16.883-19.723,32.281-33.426,45.162v-125.931h.001s21.232,8.752,21.232,8.752l27.82,11.473c.043,1.757.01,3.524-.075,5.281-.075,1.5-.192,2.999-.353,4.488-.107,1.028-.236,2.057-.375,3.085-.739,5.431-1.906,10.819-3.117,16.133h23.867c1.275-6.545,2.485-13.133,3.182-19.775.086-.739.16-1.478.225-2.218Z" fill="#010101"/></svg>