<?xml version="1.0" encoding="UTF-8"?><svg id="Layer_1" xmlns="http://www.w3.org/2000/svg" viewBox="0 0 1000 798"><path d="M494.057,436.623c-35.969-20.865-66.387-51.998-81.835-91.078-8.102-20.498-12.093-42.644-11.835-64.747l49.364-19.159-1.325,22.259-25.74,10.916c2.937,35.698,19.959,69.64,45.873,93.999v-143.271l25.499-15.459v206.539Z" fill="#f3f3f3"/><path d="M599.241,279.327l-88.398-46.148-5.106-3.095v206.539c33.884-19.655,62.833-48.427,78.99-84.366.019.01.039.017.057.027.973-2.169,1.911-4.357,2.79-6.577.611-1.552,1.202-3.124,1.773-4.696-.04,0-.09,0-.14-.01-7.631-.831-15.982-.26-23.722-.571-.915,2.083-1.883,4.141-2.893,6.18-.036-.005-.073-.008-.11-.013-7.827,15.782-18.436,30.175-31.246,42.216v-117.718h.001s19.847,8.182,19.847,8.182l26.005,10.725c.04,1.642.01,3.295-.07,4.937-.07,1.402-.18,2.804-.33,4.196-.1.961-.22,1.923-.35,2.884-.691,5.077-1.782,10.114-2.914,15.08h22.311c1.192-6.118,2.323-12.277,2.974-18.485.08-.691.15-1.382.21-2.073.28-3.224.561-6.969.651-10.184.03-1.242.211-6.439-.33-7.03Z" fill="#f3f3f3"/><path d="M245.666,479.528l-36.725,87.144-36.724-87.144h18.922l17.802,42.451,17.802-42.451h18.923Z" fill="#f3f3f3"/><path d="M287.992,478.284c14.44,0,27.263,6.847,35.479,17.428l-14.067,10.333c-4.979-6.349-12.822-10.333-21.412-10.333-15.063,0-27.388,12.325-27.388,27.388s12.325,27.388,27.388,27.388c8.59,0,16.433-3.984,21.412-10.333l14.067,10.333c-8.216,10.582-21.039,17.428-35.479,17.428-24.774,0-44.816-20.043-44.816-44.816s20.043-44.816,44.816-44.816Z" fill="#f3f3f3"/><path d="M328.452,479.528h17.428v28.509c4.979-3.237,10.83-4.731,16.807-4.731,15.188,0,30.5,10.707,30.5,32.244v31.123h-17.429v-31.123c0-8.216-6.722-14.939-14.938-14.939s-14.939,6.723-14.939,14.939v31.123h-17.428v-87.144Z" fill="#f3f3f3"/><path d="M430.535,503.182c17.802,0,32.367,14.565,32.367,32.367v32.367h-32.367c-17.802,0-32.367-14.565-32.367-32.367s14.565-32.367,32.367-32.367ZM430.535,550.488h14.938v-14.939c0-8.216-6.722-14.939-14.938-14.939s-14.939,6.723-14.939,14.939,6.723,14.939,14.939,14.939Z" fill="#f3f3f3"/><rect x="470.371" y="504.426" width="17.429" height="62.246" fill="#f3f3f3"/><path d="M561.249,566.672h-17.428v-29.256c0-10.458-5.104-15.561-15.562-15.561h-15.561v44.816h-17.428v-62.246h32.989c22.16,0,32.99,10.83,32.99,32.99v29.256Z" fill="#f3f3f3"/><path d="M611.044,478.284c14.44,0,27.263,6.847,35.479,17.428l-14.067,10.333c-4.979-6.349-12.822-10.333-21.412-10.333-15.063,0-27.388,12.325-27.388,27.388s12.325,27.388,27.388,27.388c8.59,0,16.433-3.984,21.412-10.333l14.067,10.333c-8.216,10.582-21.039,17.428-35.479,17.428-24.774,0-44.816-20.043-44.816-44.816s20.043-44.816,44.816-44.816Z" fill="#f3f3f3"/><path d="M651.504,525.714c0-15.312,7.22-21.288,23.777-21.288h13.072v17.429h-13.072c-4.73,0-6.349,2.365-6.349,5.85v38.966h-17.428v-40.958Z" fill="#f3f3f3"/><path d="M712.753,543.019c2.614,4.482,7.469,7.47,12.947,7.47,2.988,0,5.851-.997,8.216-2.614l14.565,10.83c-5.851,5.726-13.943,9.212-22.782,9.212-17.927,0-32.367-14.441-32.367-32.367s14.44-32.367,32.367-32.367,32.367,14.44,32.367,32.367c0,2.49-.374,5.104-.872,7.47h-44.443ZM712.753,528.079h25.769c-2.614-4.482-7.345-7.47-12.822-7.47s-10.333,2.988-12.947,7.47Z" fill="#f3f3f3"/><path d="M793.548,503.305c5.975,0,11.826,1.495,16.806,4.731v-28.509h17.429v88.388h-32.367c-17.802,0-32.367-14.565-32.367-32.367,0-21.537,15.312-32.244,30.5-32.244ZM795.416,550.488h14.938v-14.939c0-8.216-6.722-14.939-14.938-14.939s-14.939,6.723-14.939,14.939,6.723,14.939,14.939,14.939Z" fill="#f3f3f3"/><polygon points="475.573 477.014 470.27 477.014 470.27 494.499 475.573 494.499 487.748 494.499 487.748 488.478 487.748 477.014 479.764 477.014 475.573 477.014" fill="#f3f3f3"/></svg>